<svg width="354" height="92" viewBox="0 0 354 92" fill="none" xmlns="http://www.w3.org/2000/svg">
<g filter="url(#filter0_d_897_409)">
<rect x="10" y="6" width="334" height="72" rx="30" fill="url(#paint0_linear_897_409)" shape-rendering="crispEdges"/>
<rect x="10.5" y="6.5" width="333" height="71" rx="29.5" stroke="white" shape-rendering="crispEdges"/>
<path d="M159.207 42.1445V44.0977H152.508V46.9688H150.047V44.0977H142.938V42.1445H159.207ZM157.41 48.4922V50.4844H144.852V45.5625H147.312V48.4922H157.41ZM147.488 33.5898V35.4453H154.617V33.5898H157.098V40.8945H145.027V33.5898H147.488ZM147.488 38.9219H154.617V37.3008H147.488V38.9219ZM166.902 35.7969C166.883 38.0039 168.133 40.1523 170.945 41.0508L169.617 43.0234C167.703 42.3789 166.404 41.0996 165.652 39.4883C164.861 41.2461 163.484 42.623 161.473 43.3359L160.125 41.3438C163.094 40.3867 164.363 38.0625 164.383 35.6406V33.9414H166.902V35.7969ZM175.223 44.4102V50.7969H172.742V46.3828H163.016V44.4102H175.223ZM175.223 33.0234V43.6094H172.742V38.375H169.402V36.3242H172.742V33.0234H175.223ZM191.551 33.0234V39.9766H194.168V42.0273H191.551V50.7969H189.09V33.0234H191.551ZM187.879 35.6797V37.6719H177.43V35.6797H181.453V33.2969H183.953V35.6797H187.879ZM182.703 38.668C185.301 38.668 187.234 40.4258 187.234 42.9062C187.234 45.3867 185.301 47.1445 182.703 47.1445C180.086 47.1445 178.152 45.3867 178.152 42.9062C178.152 40.4258 180.086 38.668 182.703 38.668ZM182.703 40.6797C181.453 40.6992 180.535 41.5391 180.535 42.9062C180.535 44.293 181.453 45.1133 182.703 45.0938C183.953 45.1133 184.852 44.293 184.852 42.9062C184.852 41.5391 183.953 40.6992 182.703 40.6797ZM209.754 33.0234V50.7969H207.234V33.0234H209.754ZM204.422 34.8789C204.422 40.2695 202.527 44.7422 196.18 47.75L194.871 45.7578C199.461 43.5898 201.482 40.7773 201.883 36.832H195.828V34.8789H204.422Z" fill="white"/>
</g>
<defs>
<filter id="filter0_d_897_409" x="0" y="0" width="354" height="92" filterUnits="userSpaceOnUse" color-interpolation-filters="sRGB">
<feFlood flood-opacity="0" result="BackgroundImageFix"/>
<feColorMatrix in="SourceAlpha" type="matrix" values="0 0 0 0 0 0 0 0 0 0 0 0 0 0 0 0 0 0 127 0" result="hardAlpha"/>
<feOffset dy="4"/>
<feGaussianBlur stdDeviation="5"/>
<feComposite in2="hardAlpha" operator="out"/>
<feColorMatrix type="matrix" values="0 0 0 0 0.998477 0 0 0 0 1 0 0 0 0 0.923828 0 0 0 0.25 0"/>
<feBlend mode="normal" in2="BackgroundImageFix" result="effect1_dropShadow_897_409"/>
<feBlend mode="normal" in="SourceGraphic" in2="effect1_dropShadow_897_409" result="shape"/>
</filter>
<linearGradient id="paint0_linear_897_409" x1="177" y1="6" x2="177" y2="78" gradientUnits="userSpaceOnUse">
<stop stop-color="#D2AFED"/>
<stop offset="1" stop-color="#9B92EF"/>
</linearGradient>
</defs>
</svg>
