<svg width="393" height="852" viewBox="0 0 393 852" fill="none" xmlns="http://www.w3.org/2000/svg">
<rect width="393" height="852" fill="white"/>
<rect width="393" height="852" fill="url(#paint0_linear_880_477)"/>
<g filter="url(#filter0_d_880_477)">
<path d="M49.9925 146.878V139.338C49.9925 135.88 53.0345 133.41 56.6745 133.41C60.2625 133.41 63.3565 135.88 63.3565 139.338V141.132H66.7365V132.5H69.7525V155.874H66.7365V143.732H63.3565V146.878C63.3565 150.414 60.2625 152.806 56.6745 152.806C53.0345 152.806 49.9925 150.414 49.9925 146.878ZM56.6745 150.362C58.0265 150.362 58.9365 149.92 59.5345 149.27C60.0805 148.568 60.3405 147.658 60.3405 146.618V139.598C60.3405 138.584 60.0805 137.674 59.5345 136.972C58.9365 136.322 58.0265 135.854 56.6745 135.854C55.2965 135.854 54.3865 136.322 53.7885 136.972C53.2425 137.674 53.0085 138.584 53.0085 139.598V146.618C53.0085 147.658 53.2425 148.568 53.7885 149.27C54.3865 149.92 55.2965 150.362 56.6745 150.362ZM91.0124 147.996V132.5H93.9244V147.996H91.0124ZM83.6544 140.664V137.96H86.2804V132.89H89.1404V146.176H86.2804V140.664H83.6544ZM84.5644 133.54V135.984H81.4184L85.0584 144.876H81.9904L79.0784 137.102L75.8544 145.006H72.7344L76.6084 135.984H73.3584V133.54H84.5644ZM75.0484 155.796L83.7844 147.112H86.5924L95.3284 155.796H91.6884L85.1884 149.426L78.6884 155.796H75.0484ZM113.78 145.916V132.5H116.796V137.18H120.176V139.884H116.796V145.916H113.78ZM107.644 133.28H110.66V144.616H97.8163V133.28H100.832V136.556H107.644V133.28ZM100.832 142.224H107.644V138.896H100.832V142.224ZM99.6883 155.666V146.8H116.744V155.666H99.6883ZM102.704 153.222H113.728V149.192H102.704V153.222ZM127.46 146.878V139.338C127.46 135.88 130.502 133.41 134.142 133.41C137.73 133.41 140.824 135.88 140.824 139.338V141.132H144.204V132.5H147.22V155.874H144.204V143.732H140.824V146.878C140.824 150.414 137.73 152.806 134.142 152.806C130.502 152.806 127.46 150.414 127.46 146.878ZM134.142 150.362C135.494 150.362 136.404 149.92 137.002 149.27C137.548 148.568 137.808 147.658 137.808 146.618V139.598C137.808 138.584 137.548 137.674 137.002 136.972C136.404 136.322 135.494 135.854 134.142 135.854C132.764 135.854 131.854 136.322 131.256 136.972C130.71 137.674 130.476 138.584 130.476 139.598V146.618C130.476 147.658 130.71 148.568 131.256 149.27C131.854 149.92 132.764 150.362 134.142 150.362ZM168.376 149.816V140.3H164.008V137.752H168.376V132.5H171.392V149.816H168.376ZM151.216 145.136V133.644H157.56V136.088H154.18V142.666H158.548V133.618L165.1 133.644V136.088H161.46V142.64C163.15 142.588 164.84 142.458 166.53 142.146V144.616C164.242 145.032 161.928 145.136 159.614 145.136H151.216ZM171.912 153.092V155.536H153.764V147.632H156.78V153.092H171.912ZM181.172 133.15H190.324C190.246 136.088 190.142 138.87 189.778 141.262H197.422C197.734 139.26 197.864 137.206 197.864 135.594H191.832V133.15H200.984C200.906 136.088 200.802 138.87 200.438 141.262H202.726V143.706H192.794V146.904H200.646V155.666H181.926V146.904H189.778V143.706H179.82V141.262H186.762C187.074 139.26 187.204 137.206 187.204 135.594H181.172V133.15ZM184.942 153.222H197.63V149.348H184.942V153.222ZM205.318 136.556C205.318 134.372 207.19 132.786 210.518 132.786H219.878C223.206 132.786 225.078 134.372 225.078 136.556C225.078 138.766 223.206 140.326 219.878 140.326H210.518C207.19 140.326 205.318 138.766 205.318 136.556ZM208.334 136.556C208.334 137.492 209.114 137.986 210.986 137.986H219.41C221.256 137.986 222.062 137.492 222.062 136.556C222.062 135.62 221.256 135.126 219.41 135.126H210.986C209.114 135.126 208.334 135.62 208.334 136.556ZM203.732 144.2V141.86H226.638V144.2H203.732ZM224.948 153.352V155.666H205.838V149.634H221.542V148.204H205.838V145.916H224.558V151.766H208.854V153.352H224.948ZM234.702 133.41H243.854C243.776 137.362 243.62 140.69 243.152 143.55H250.822C251.186 141.028 251.394 138.402 251.394 135.854H245.362V133.41H254.514C254.436 137.362 254.28 140.69 253.812 143.55H256.282V146.15H246.402V155.874H243.282V146.15H233.376V143.55H240.162C240.526 141.028 240.734 138.402 240.734 135.854H234.702V133.41ZM275.488 145.656V141.86H272.108V139.312H275.488V137.362H272.108V134.814H275.488V132.5H278.504V145.656H275.488ZM257.184 144.772L263.528 133.15H266.804L272.888 144.642H269.612L265.192 136.062L260.564 144.772H257.184ZM269.456 153.196L272.394 146.852H275.41L279.934 155.796H276.814L273.902 149.478L270.86 155.796H268.052L265.01 149.478L262.098 155.796H258.978L263.502 146.852H266.518L269.456 153.196ZM298.1 155.874V132.5H301.116V140.82H304.756V143.524H301.116V155.874H298.1ZM289.104 149.14C291.938 149.14 294.772 149.01 297.06 148.568V151.064C294.772 151.506 291.938 151.636 289.104 151.636H282.604V133.904H285.62V149.14H289.104ZM313.12 145.812C311.248 145.812 309.688 145.214 308.57 144.096C307.452 143.03 306.828 141.496 306.828 139.728C306.828 137.96 307.452 136.478 308.57 135.36C309.688 134.294 311.248 133.644 313.12 133.644H320.036C321.882 133.644 323.442 134.32 324.56 135.386C325.678 136.504 326.328 137.986 326.328 139.728C326.328 141.496 325.678 142.978 324.56 144.096C323.442 145.162 321.882 145.812 320.036 145.812H313.12ZM309.844 139.728C309.844 142.198 311.092 143.368 313.9 143.368H319.256C322.038 143.368 323.312 141.886 323.312 139.728C323.312 138.714 322.974 137.856 322.324 137.154C321.674 136.452 320.634 136.088 319.256 136.088H313.9C311.092 136.088 309.844 137.44 309.844 139.728ZM305.112 153.794V151.194H310.598V146.722H313.718V151.194H319.438V146.722H322.558V151.194H328.018V153.794H305.112ZM338.176 149.53H335.212V148.932C335.212 148.126 335.212 147.268 335.55 146.306C335.862 145.37 336.486 144.304 337.734 142.978C339.84 140.742 340.854 139.702 340.854 138.35C340.854 136.478 339.346 134.996 336.642 134.97C335.316 134.996 334.302 135.438 333.6 136.14C332.872 136.842 332.534 137.726 332.534 138.662V140.352H329.57V138.402C329.57 136.92 330.22 135.438 331.442 134.32C332.664 133.254 334.432 132.5 336.642 132.474C338.722 132.5 340.516 133.15 341.79 134.216C343.064 135.256 343.818 136.712 343.818 138.272C343.792 139.728 343.35 140.742 342.648 141.678C341.998 142.614 341.088 143.42 340.178 144.46C338.124 146.514 338.176 147.71 338.176 148.906V149.53ZM338.306 155.666H335.03V151.662H338.306V155.666Z" fill="white"/>
</g>
<path d="M96.4238 172.164V176.134H98.3867V177.101H96.4238V181.7H95.2666V172.164H96.4238ZM92.9082 173.175C92.9082 176.529 90.5059 179.02 86.7559 180.191L86.2578 179.269C89.3779 178.294 91.4141 176.434 91.6631 174.142H86.7998V173.175H92.9082ZM97.0244 183.941V184.908H88.2646V180.733H89.4072V183.941H97.0244ZM109.388 172.164V176.046H111.365V177.013H109.388V181.598H108.245V172.164H109.388ZM105.623 173.292V174.259H100.965V178.316C103.58 178.316 105.066 178.25 106.81 177.892L106.956 178.844C105.125 179.195 103.572 179.283 100.833 179.283H99.8223V173.292H105.623ZM109.988 183.941V184.908H101.243V180.646H102.371V183.941H109.988ZM122.908 172.164V185.187H121.751V172.164H122.908ZM120.345 174.288V175.226H112.464V174.288H115.818V172.296H116.976V174.288H120.345ZM116.434 176.295C118.309 176.295 119.656 177.525 119.656 179.283C119.656 181.041 118.309 182.271 116.434 182.271C114.544 182.271 113.182 181.041 113.196 179.283C113.182 177.525 114.544 176.295 116.434 176.295ZM116.434 177.262C115.188 177.262 114.28 178.111 114.28 179.283C114.28 180.47 115.188 181.305 116.434 181.29C117.664 181.305 118.558 180.47 118.558 179.283C118.558 178.111 117.664 177.262 116.434 177.262ZM139.695 172.164V178.902H138.538V175.519H135.638V174.566H138.538V172.164H139.695ZM139.695 179.562V182.667H132.415V184.088H140.179V185.011H131.287V181.788H138.553V180.484H131.258V179.562H139.695ZM133.338 173.819C133.323 175.533 134.671 177.086 136.575 177.716L135.96 178.609C134.517 178.097 133.367 177.071 132.796 175.753C132.239 177.24 131.06 178.375 129.515 178.932L128.885 178.009C130.848 177.364 132.195 175.724 132.21 173.819V172.589H133.338V173.819ZM152.659 172.164V179.884H151.502V177.833H148.455V178.946H142.479V173.16H148.455V174.288H151.502V172.164H152.659ZM143.621 174.098V178.009H147.327V174.098H143.621ZM148.338 180.265C151.048 180.265 152.703 181.158 152.703 182.726C152.703 184.278 151.048 185.157 148.338 185.157C145.628 185.157 143.973 184.278 143.973 182.726C143.973 181.158 145.628 180.265 148.338 180.265ZM148.338 181.158C146.346 181.173 145.101 181.744 145.115 182.726C145.101 183.663 146.346 184.249 148.338 184.249C150.33 184.249 151.561 183.663 151.561 182.726C151.561 181.744 150.33 181.173 148.338 181.158ZM148.455 176.866H151.502V175.24H148.455V176.866ZM161.331 174.42V175.357H154.798V174.42H157.508V172.56H158.65V174.42H161.331ZM158.064 176.236C159.705 176.236 160.877 177.467 160.892 179.195C160.877 180.938 159.705 182.184 158.064 182.184C156.438 182.184 155.267 180.938 155.267 179.195C155.267 177.467 156.438 176.236 158.064 176.236ZM158.064 177.203C157.039 177.218 156.292 178.053 156.292 179.195C156.292 180.353 157.039 181.188 158.064 181.173C159.104 181.188 159.866 180.353 159.866 179.195C159.866 178.053 159.104 177.218 158.064 177.203ZM165.916 172.164V185.187H164.817V178.609H163.089V184.542H162.005V172.486H163.089V177.657H164.817V172.164H165.916ZM174.368 174.01C174.354 175.753 176.683 177.232 178.953 177.569L178.528 178.478C176.492 178.133 174.515 177.049 173.724 175.475C172.933 177.049 170.948 178.133 168.948 178.478L168.494 177.569C170.75 177.232 173.079 175.753 173.079 174.01V173.922H168.904V172.984H178.528V173.922H174.368V174.01ZM179.656 179.591V180.543H174.266V185.187H173.138V180.543H167.791V179.591H179.656ZM191.551 172.164V185.216H190.394V179.225H187.508V178.243H190.394V175.987H187.508V175.021H190.394V172.164H191.551ZM185.34 175.665C185.34 178.038 186.849 180.411 188.738 181.305L188.05 182.242C186.563 181.488 185.34 179.898 184.769 178.023C184.183 179.972 182.952 181.642 181.487 182.433L180.74 181.51C182.645 180.572 184.168 178.067 184.168 175.665V173.292H185.34V175.665ZM204.236 178.272V179.21H200.208V182.579H205.643V183.546H193.719V182.579H199.08V179.21H195.242V173.233H204.104V174.171H196.399V178.272H204.236ZM222.356 179.063V180.001H217.054V182.55H215.911V180.001H210.433V179.063H222.356ZM221.023 183.941V184.908H211.956V181.349H213.099V183.941H221.023ZM213.172 172.589V174.259H219.617V172.589H220.76V177.789H212.029V172.589H213.172ZM213.172 176.852H219.617V175.138H213.172V176.852ZM227.85 174.259C227.85 176.061 229.183 177.716 231.072 178.36L230.442 179.283C228.992 178.749 227.864 177.635 227.308 176.251C226.758 177.789 225.586 178.99 224.056 179.591L223.426 178.639C225.403 177.936 226.707 176.222 226.722 174.215V172.838H227.85V174.259ZM234.207 180.587V185.187H233.05V181.51H225.447V180.587H234.207ZM234.207 172.164V179.869H233.05V175.87H230.149V174.903H233.05V172.164H234.207ZM247.112 172.164V185.216H245.955V172.164H247.112ZM240.184 173.175C242.117 173.189 243.509 174.947 243.509 177.716C243.509 180.484 242.117 182.242 240.184 182.242C238.235 182.242 236.858 180.484 236.858 177.716C236.858 174.947 238.235 173.189 240.184 173.175ZM240.184 174.2C238.88 174.215 237.972 175.592 237.972 177.716C237.972 179.84 238.88 181.217 240.184 181.217C241.487 181.217 242.396 179.84 242.396 177.716C242.396 175.592 241.487 174.215 240.184 174.2ZM263.182 172.164V177.467H265.291V178.434H263.182V185.187H262.039V172.164H263.182ZM259.812 173.57C259.812 177.262 258.084 180.616 253.836 182.711L253.191 181.803C256.561 180.125 258.392 177.621 258.655 174.537H253.792V173.57H259.812ZM276.585 175.812V176.764H267.693V172.428H268.836V175.812H276.585ZM277.947 178.287V179.239H266.067V178.287H277.947ZM272 180.411C274.798 180.411 276.468 181.261 276.482 182.77C276.468 184.278 274.798 185.128 272 185.128C269.188 185.128 267.503 184.278 267.503 182.77C267.503 181.261 269.188 180.411 272 180.411ZM272 181.319C269.905 181.334 268.66 181.847 268.675 182.77C268.66 183.678 269.905 184.234 272 184.234C274.065 184.234 275.325 183.678 275.325 182.77C275.325 181.847 274.065 181.334 272 181.319ZM285.535 174.42V175.357H279.002V174.42H281.712V172.56H282.854V174.42H285.535ZM282.269 176.236C283.909 176.236 285.081 177.467 285.096 179.195C285.081 180.938 283.909 182.184 282.269 182.184C280.643 182.184 279.471 180.938 279.471 179.195C279.471 177.467 280.643 176.236 282.269 176.236ZM282.269 177.203C281.243 177.218 280.496 178.053 280.496 179.195C280.496 180.353 281.243 181.188 282.269 181.173C283.309 181.188 284.07 180.353 284.07 179.195C284.07 178.053 283.309 177.218 282.269 177.203ZM290.12 172.164V185.187H289.021V178.609H287.293V184.542H286.209V172.486H287.293V177.657H289.021V172.164H290.12ZM303.919 182.55V183.517H291.995V182.55H294.954V179.034C293.841 178.456 293.167 177.518 293.167 176.339C293.167 174.317 295.145 172.999 297.928 172.984C300.711 172.999 302.688 174.317 302.688 176.339C302.688 177.496 302.037 178.426 300.96 179.005V182.55H303.919ZM297.928 173.937C295.789 173.922 294.28 174.889 294.28 176.339C294.28 177.789 295.789 178.771 297.928 178.771C300.052 178.771 301.575 177.789 301.575 176.339C301.575 174.889 300.052 173.922 297.928 173.937ZM296.082 182.55H299.803V179.444C299.239 179.598 298.609 179.679 297.928 179.679C297.261 179.679 296.639 179.605 296.082 179.459V182.55ZM307.068 173.395L306.966 181.012H305.735L305.633 173.395H307.068ZM306.351 184.088C305.838 184.088 305.398 183.663 305.413 183.136C305.398 182.623 305.838 182.198 306.351 182.198C306.863 182.198 307.288 182.623 307.288 183.136C307.288 183.663 306.863 184.088 306.351 184.088ZM27.5615 202V191.395H31.2822C33.5088 191.395 34.5488 192.64 34.5488 194.207C34.5488 195.569 33.7432 196.185 32.8203 196.434V196.536C33.8018 196.595 34.9736 197.503 34.9736 199.188C34.9736 200.784 33.9189 202 31.4141 202H27.5615ZM31.3994 200.828C33.0547 200.828 33.6992 200.096 33.6992 199.173C33.6992 198.089 32.835 197.181 31.4727 197.181H28.8799V200.828H31.3994ZM31.2383 196.038C32.3809 196.038 33.2891 195.335 33.2891 194.222C33.2891 193.299 32.6738 192.566 31.2822 192.566H28.8799V196.038H31.2383ZM41.7119 198.733V194.046H42.957V202H41.7119V200.652H41.624C41.2432 201.458 40.4668 202.103 39.2656 202.103C37.7568 202.103 36.6875 201.121 36.6875 199.1V194.046H37.9473V199.012C37.9473 200.154 38.665 200.887 39.6758 200.887C40.5693 200.887 41.7119 200.213 41.7119 198.733ZM48.4502 194.046V195.101H46.7803V199.715C46.7803 200.74 47.2783 200.901 47.8203 200.901C48.0547 200.901 48.377 200.887 48.5674 200.872V202.044C48.377 202.073 48.0547 202.103 47.6885 202.103C46.6338 202.103 45.5059 201.443 45.5059 200.037V195.101H44.3047V194.046H45.5059V192.142H46.7803V194.046H48.4502ZM51.7314 201.019L50.5889 205.003H49.5049L50.3105 201.019H51.7314ZM61.6045 194.163C61.5898 196.258 63.0986 198.558 64.9883 199.451L64.3291 200.359C62.8643 199.649 61.6265 198.096 61.0479 196.331C60.4473 198.25 59.1362 199.935 57.6787 200.682L56.9756 199.773C58.8506 198.865 60.4619 196.39 60.4766 194.163V192.464H57.4443V191.512H64.5342V192.464H61.6045V194.163ZM67.2734 190.164V195.438H69.4561V196.419H67.2734V203.187H66.1309V190.164H67.2734ZM74.0264 193.87C74.0264 195.936 75.0371 198.177 76.7656 199.202L76.1064 200.096C74.854 199.334 73.9531 197.942 73.499 196.36C73.0156 198.089 72.0488 199.576 70.7451 200.374L70.0127 199.51C71.8145 198.455 72.9131 196.141 72.9131 193.914V191.395H74.0264V193.87ZM81.3213 190.164V203.187H80.208V190.164H81.3213ZM78.626 190.442V202.527H77.542V195.818H75.3301V194.837H77.542V190.442H78.626ZM93.8604 190.164V203.187H92.7031V190.164H93.8604ZM91.2969 192.288V193.226H83.416V192.288H86.7705V190.296H87.9277V192.288H91.2969ZM87.3857 194.295C89.2607 194.295 90.6084 195.525 90.6084 197.283C90.6084 199.041 89.2607 200.271 87.3857 200.271C85.4961 200.271 84.1338 199.041 84.1484 197.283C84.1338 195.525 85.4961 194.295 87.3857 194.295ZM87.3857 195.262C86.1406 195.262 85.2324 196.111 85.2324 197.283C85.2324 198.47 86.1406 199.305 87.3857 199.29C88.6162 199.305 89.5098 198.47 89.5098 197.283C89.5098 196.111 88.6162 195.262 87.3857 195.262ZM104.261 192.581C104.261 194.31 105.535 195.892 107.469 196.565L106.883 197.459C105.396 196.932 104.261 195.862 103.704 194.515C103.147 195.994 101.954 197.144 100.423 197.708L99.8076 196.814C101.756 196.126 103.118 194.441 103.133 192.581V192.024H100.159V191.087H107.19V192.024H104.261V192.581ZM110.032 190.164V193.606H111.995V194.588H110.032V198.016H108.89V190.164H110.032ZM110.032 198.704V203.187H108.89V199.642H101.507V198.704H110.032ZM117.298 192.215C117.283 194.075 118.602 195.716 120.521 196.36L119.876 197.254C118.44 196.712 117.312 195.657 116.756 194.28C116.192 195.84 114.998 197.056 113.431 197.649L112.801 196.712C114.808 196.009 116.141 194.28 116.155 192.259V190.911H117.298V192.215ZM123.611 190.164V197.884H122.454V193.914H119.554V192.962H122.454V190.164H123.611ZM119.29 198.265C122 198.265 123.655 199.158 123.655 200.726C123.655 202.278 122 203.157 119.29 203.157C116.58 203.157 114.925 202.278 114.925 200.726C114.925 199.158 116.58 198.265 119.29 198.265ZM119.29 199.173C117.298 199.173 116.053 199.759 116.067 200.726C116.053 201.663 117.298 202.234 119.29 202.234C121.282 202.234 122.513 201.663 122.513 200.726C122.513 199.759 121.282 199.173 119.29 199.173ZM132.283 192.42V193.357H125.75V192.42H128.46V190.56H129.603V192.42H132.283ZM129.017 194.236C130.657 194.236 131.829 195.467 131.844 197.195C131.829 198.938 130.657 200.184 129.017 200.184C127.391 200.184 126.219 198.938 126.219 197.195C126.219 195.467 127.391 194.236 129.017 194.236ZM129.017 195.203C127.991 195.218 127.244 196.053 127.244 197.195C127.244 198.353 127.991 199.188 129.017 199.173C130.057 199.188 130.818 198.353 130.818 197.195C130.818 196.053 130.057 195.218 129.017 195.203ZM136.868 190.164V203.187H135.77V196.609H134.041V202.542H132.957V190.486H134.041V195.657H135.77V190.164H136.868ZM149.085 192.01C149.07 193.753 151.399 195.232 153.67 195.569L153.245 196.478C151.209 196.133 149.231 195.049 148.44 193.475C147.649 195.049 145.665 196.133 143.665 196.478L143.211 195.569C145.467 195.232 147.796 193.753 147.796 192.01V191.922H143.621V190.984H153.245V191.922H149.085V192.01ZM154.373 197.591V198.543H148.982V203.187H147.854V198.543H142.508V197.591H154.373ZM166.209 190.164V196.917H165.081V190.164H166.209ZM166.224 197.576V200.696H158.914V202.103H166.692V203.04H157.786V199.803H165.081V198.499H157.757V197.576H166.224ZM160.086 191.541C160.071 193.387 161.478 195.013 163.411 195.643L162.84 196.536C161.316 196.016 160.101 194.925 159.515 193.519C158.929 195.035 157.706 196.229 156.16 196.785L155.56 195.877C157.522 195.188 158.914 193.46 158.914 191.541V190.545H160.086V191.541ZM174.969 191.38C174.969 193.211 177.371 194.808 179.715 195.13L179.246 196.067C177.225 195.73 175.225 194.61 174.383 193.006C173.548 194.617 171.541 195.73 169.52 196.067L169.051 195.13C171.395 194.808 173.782 193.24 173.782 191.38V190.633H174.969V191.38ZM180.301 197.503V198.47H174.91V203.187H173.782V198.47H168.436V197.503H180.301ZM193.309 197.342V198.294H181.385V197.342H186.775V195.965H182.938V192.786H190.613V191.438H182.894V190.501H191.771V193.65H184.08V195.042H192.049V195.965H187.903V197.342H193.309ZM191.844 199.29V203.069H190.687V200.228H182.718V199.29H191.844ZM208.924 190.164V197.928H207.767V194.515H205.145V193.562H207.767V190.164H208.924ZM204.603 198.338C207.312 198.338 208.968 199.217 208.968 200.755C208.968 202.293 207.312 203.172 204.603 203.187C201.893 203.172 200.237 202.293 200.237 200.755C200.237 199.217 201.893 198.338 204.603 198.338ZM204.603 199.231C202.61 199.231 201.365 199.803 201.38 200.755C201.365 201.692 202.61 202.264 204.603 202.264C206.595 202.264 207.825 201.692 207.825 200.755C207.825 199.803 206.595 199.231 204.603 199.231ZM202.654 192.552C202.654 194.251 203.958 195.862 205.862 196.521L205.262 197.444C203.797 196.917 202.662 195.826 202.112 194.471C201.541 196.001 200.333 197.225 198.787 197.811L198.187 196.888C200.12 196.185 201.497 194.427 201.497 192.566V192.083H198.553V191.116H205.569V192.083H202.654V192.552ZM221.258 190.179V194.119H223.206V195.086H221.258V198.909H220.101V190.179H221.258ZM211.033 197.576C212.073 197.576 213.289 197.576 214.563 197.532V196.58C213.047 196.448 212.073 195.738 212.073 194.661C212.073 193.475 213.289 192.742 215.12 192.742C216.966 192.742 218.167 193.475 218.182 194.661C218.167 195.73 217.215 196.441 215.706 196.58V197.488C216.922 197.43 218.152 197.334 219.295 197.166L219.397 198.001C216.57 198.499 213.45 198.514 211.165 198.514L211.033 197.576ZM221.258 199.554V203.187H220.101V200.477H212.63V199.554H221.258ZM218.899 191.365V192.244H211.355V191.365H214.563V190.062H215.706V191.365H218.899ZM215.12 193.562C213.919 193.548 213.172 193.973 213.172 194.661C213.172 195.335 213.919 195.804 215.12 195.789C216.321 195.804 217.083 195.335 217.083 194.661C217.083 193.973 216.321 193.548 215.12 193.562ZM234.236 190.179V194.471H236.199V195.438H234.236V199.935H233.094V190.179H234.236ZM231.849 191.775V192.713H224.085V191.775H227.396V190.179H228.538V191.775H231.849ZM227.967 193.431C229.827 193.431 231.087 194.383 231.102 195.862C231.087 197.327 229.827 198.265 227.967 198.265C226.092 198.265 224.817 197.327 224.832 195.862C224.817 194.383 226.092 193.431 227.967 193.431ZM227.967 194.339C226.736 194.339 225.916 194.939 225.931 195.862C225.916 196.785 226.736 197.371 227.967 197.356C229.183 197.371 230.003 196.785 230.018 195.862C230.003 194.939 229.183 194.339 227.967 194.339ZM234.837 201.941V202.908H226.092V199.158H227.22V201.941H234.837ZM252.693 197.063V198.001H247.391V200.55H246.248V198.001H240.77V197.063H252.693ZM251.36 201.941V202.908H242.293V199.349H243.436V201.941H251.36ZM243.509 190.589V192.259H249.954V190.589H251.097V195.789H242.366V190.589H243.509ZM243.509 194.852H249.954V193.138H243.509V194.852ZM258.187 192.259C258.187 194.061 259.52 195.716 261.409 196.36L260.779 197.283C259.329 196.749 258.201 195.635 257.645 194.251C257.095 195.789 255.923 196.99 254.393 197.591L253.763 196.639C255.74 195.936 257.044 194.222 257.059 192.215V190.838H258.187V192.259ZM264.544 198.587V203.187H263.387V199.51H255.784V198.587H264.544ZM264.544 190.164V197.869H263.387V193.87H260.486V192.903H263.387V190.164H264.544ZM277.449 190.164V203.216H276.292V190.164H277.449ZM270.521 191.175C272.454 191.189 273.846 192.947 273.846 195.716C273.846 198.484 272.454 200.242 270.521 200.242C268.572 200.242 267.195 198.484 267.195 195.716C267.195 192.947 268.572 191.189 270.521 191.175ZM270.521 192.2C269.217 192.215 268.309 193.592 268.309 195.716C268.309 197.84 269.217 199.217 270.521 199.217C271.824 199.217 272.732 197.84 272.732 195.716C272.732 193.592 271.824 192.215 270.521 192.2ZM293.519 190.164V195.467H295.628V196.434H293.519V203.187H292.376V190.164H293.519ZM290.149 191.57C290.149 195.262 288.421 198.616 284.173 200.711L283.528 199.803C286.897 198.125 288.729 195.621 288.992 192.537H284.129V191.57H290.149ZM306.922 193.812V194.764H298.03V190.428H299.173V193.812H306.922ZM308.284 196.287V197.239H296.404V196.287H308.284ZM302.337 198.411C305.135 198.411 306.805 199.261 306.819 200.77C306.805 202.278 305.135 203.128 302.337 203.128C299.524 203.128 297.84 202.278 297.84 200.77C297.84 199.261 299.524 198.411 302.337 198.411ZM302.337 199.319C300.242 199.334 298.997 199.847 299.012 200.77C298.997 201.678 300.242 202.234 302.337 202.234C304.402 202.234 305.662 201.678 305.662 200.77C305.662 199.847 304.402 199.334 302.337 199.319ZM319.446 190.164V195.54H321.629V196.492H319.446V203.187H318.304V190.164H319.446ZM317.044 192.259V193.211H309.295V192.259H312.649V190.325H313.792V192.259H317.044ZM313.235 194.295C315.081 194.295 316.414 195.525 316.429 197.283C316.414 199.041 315.081 200.271 313.235 200.271C311.375 200.271 310.027 199.041 310.042 197.283C310.027 195.525 311.375 194.295 313.235 194.295ZM313.235 195.262C312.02 195.262 311.126 196.111 311.141 197.283C311.126 198.47 312.02 199.305 313.235 199.29C314.437 199.305 315.315 198.47 315.33 197.283C315.315 196.111 314.437 195.262 313.235 195.262ZM328.104 191.131C328.104 192.134 327.92 193.05 327.562 193.885H329.671V190.457H330.77V197.503H329.671V194.837H327.049C326.207 196.141 324.859 197.188 323.064 197.957L322.464 197.107C325.13 196.016 326.683 194.295 326.917 192.083H323.021V191.131H328.104ZM333.392 190.179V197.708H332.293V190.179H333.392ZM326.873 199.026C326.858 200.198 327.481 201.407 328.719 202.117C329.964 201.341 330.594 200.022 330.608 199.026V198.147H331.722V199.026C331.722 200.374 332.718 201.736 334.388 202.293L333.816 203.143C332.513 202.681 331.597 201.766 331.15 200.652C330.748 201.722 329.964 202.74 328.748 203.26C327.474 202.754 326.683 201.788 326.302 200.682C325.833 201.751 324.932 202.674 323.694 203.143L323.108 202.293C324.749 201.692 325.774 200.286 325.774 199.026V198.147H326.873V199.026ZM339.72 197.605V200.594H342.781V197.605H343.924V200.594H347.22V201.561H335.296V200.594H338.577V197.605H339.72ZM341.829 192.522C341.829 194.617 344.407 196.39 346.648 196.756L346.18 197.679C344.188 197.283 342.085 196.009 341.258 194.207C340.416 196.023 338.321 197.327 336.365 197.723L335.882 196.8C338.079 196.434 340.643 194.617 340.643 192.522V192.288H336.277V191.336H346.194V192.288H341.829V192.522ZM350.34 198.938C350.354 196.976 350.955 196.375 351.966 195.76C352.566 195.394 353.035 194.808 353.035 193.987C353.035 192.991 352.259 192.361 351.292 192.361C350.457 192.361 349.622 192.859 349.534 194.061H348.201C348.274 192.288 349.622 191.248 351.292 191.248C353.123 191.248 354.324 192.435 354.324 194.046C354.324 195.188 353.782 195.994 352.874 196.551C351.966 197.107 351.629 197.664 351.6 198.938V199.012H350.34V198.938ZM351.014 202.088C350.501 202.088 350.062 201.663 350.076 201.136C350.062 200.623 350.501 200.198 351.014 200.198C351.526 200.198 351.951 200.623 351.951 201.136C351.951 201.663 351.526 202.088 351.014 202.088ZM360.594 200.594C360.081 200.594 359.642 200.169 359.656 199.642C359.642 199.129 360.081 198.704 360.594 198.704C361.106 198.704 361.531 199.129 361.531 199.642C361.531 200.169 361.106 200.594 360.594 200.594ZM360.594 194.705C360.081 194.705 359.642 194.28 359.656 193.753C359.642 193.24 360.081 192.815 360.594 192.815C361.106 192.815 361.531 193.24 361.531 193.753C361.531 194.28 361.106 194.705 360.594 194.705ZM366.277 197.957C366.263 200.726 365.516 203.025 364.168 204.988H363.055C364.051 203.538 364.974 200.564 364.974 197.957C364.974 195.35 364.051 192.391 363.055 190.94H364.168C365.516 192.889 366.263 195.188 366.277 197.957Z" fill="#B5AFED"/>
<defs>
<filter id="filter0_d_880_477" x="39.9924" y="126.474" width="313.825" height="43.4" filterUnits="userSpaceOnUse" color-interpolation-filters="sRGB">
<feFlood flood-opacity="0" result="BackgroundImageFix"/>
<feColorMatrix in="SourceAlpha" type="matrix" values="0 0 0 0 0 0 0 0 0 0 0 0 0 0 0 0 0 0 127 0" result="hardAlpha"/>
<feOffset dy="4"/>
<feGaussianBlur stdDeviation="5"/>
<feComposite in2="hardAlpha" operator="out"/>
<feColorMatrix type="matrix" values="0 0 0 0 0.998477 0 0 0 0 1 0 0 0 0 0.923828 0 0 0 0.25 0"/>
<feBlend mode="normal" in2="BackgroundImageFix" result="effect1_dropShadow_880_477"/>
<feBlend mode="normal" in="SourceGraphic" in2="effect1_dropShadow_880_477" result="shape"/>
</filter>
<linearGradient id="paint0_linear_880_477" x1="196.5" y1="0" x2="196.5" y2="852" gradientUnits="userSpaceOnUse">
<stop stop-color="#101757"/>
<stop offset="1" stop-color="#3D1248"/>
</linearGradient>
</defs>
</svg>
